<?xml version='1.0' encoding='iso-8859-1'?>
<!DOCTYPE svg PUBLIC '-//W3C//DTD SVG 1.1//EN' 'http://www.w3.org/Graphics/SVG/1.1/DTD/svg11.dtd'>
<!-- Uploaded to: SVG Repo, www.svgrepo.com, Generator: SVG Repo Mixer Tools -->
<svg fill="#FFFFFF" height="800px" width="800px" version="1.1" xmlns="http://www.w3.org/2000/svg" viewBox="0 0 474.407 474.407" xmlns:xlink="http://www.w3.org/1999/xlink" enable-background="new 0 0 474.407 474.407">
  <g>
    <path d="m443.098,128.983h-37.889v-51.704c0-12.18-9.904-22.09-22.079-22.09h-361.04c-12.18,7.10543e-15-22.09,9.91-22.09,22.09v220.17c0,12.175 9.91,22.08 22.09,22.08h134.843l-5.436,41.35h-23.532c-5.523,0-10,4.477-10,10s4.477,10 10,10h20.903 107.482 20.902c5.522,0 10-4.477 10-10s-4.478-10-10-10h-23.531l-5.436-41.35h40.495v68.379c0,17.264 14.045,31.309 31.309,31.309h123.01c17.264,0 31.309-14.045 31.309-31.309v-227.616c-0.001-17.264-14.046-31.309-31.31-31.309zm11.309,31.309v3.561h-145.627v-3.561c0-6.235 5.073-11.309 11.309-11.309h123.01c6.234,0 11.308,5.073 11.308,11.309zm-145.627,23.56h145.627v179.043h-145.627v-179.043zm-286.69-108.663h361.04c1.146,0 2.079,0.938 2.079,2.09v51.704h-65.121c-17.264,0-31.309,14.045-31.309,31.309v102.778h-268.779v-185.791c0-1.152 0.938-2.09 2.09-2.09zm211.459,285.69h-61.88l5.436-41.35h51.008l5.436,41.35zm12.107-61.35l-86.094-.001v0.001h-137.472c-1.152,0-2.09-0.933-2.09-2.08v-14.38h268.78v16.46h-43.124zm197.442,99.688h-123.01c-6.235,0-11.309-5.073-11.309-11.309v-5.013h145.627v5.013c0.001,6.236-5.073,11.309-11.308,11.309z"/>
    <path d="m432.037,193.059h-100.887c-5.522,0-10,4.477-10,10v64c0,5.523 4.478,10 10,10h100.887c5.522,0 10-4.477 10-10v-64c0-5.523-4.478-10-10-10zm-10,64h-80.887v-44h80.887v44z"/>
    <path d="m49.15,179.059h100.886c5.523,0 10-4.477 10-10v-64c0-5.523-4.477-10-10-10h-100.886c-5.523,0-10,4.477-10,10v64c0,5.523 4.477,10 10,10zm10-64h80.886v44h-80.886v-44z"/>
    <path d="m48.3,212.359h210c5.522,0 10-4.477 10-10s-4.478-10-10-10h-210c-5.523,0-10,4.477-10,10s4.477,10 10,10z"/>
    <path d="m48.3,248.359h210c5.522,0 10-4.477 10-10s-4.478-10-10-10h-210c-5.523,0-10,4.477-10,10s4.477,10 10,10z"/>
    <path d="m432.037,293.059h-97.737c-5.522,0-10,4.477-10,10s4.478,10 10,10h97.736c5.522,0 10-4.477 10-10s-4.477-10-9.999-10z"/>
    <path d="m432.037,329.059h-97.737c-5.522,0-10,4.477-10,10s4.478,10 10,10h97.736c5.522,0 10-4.477 10-10s-4.477-10-9.999-10z"/>
  </g>
</svg>